<svg width="100" height="100" viewBox="0 0 100 100" fill="none" xmlns="http://www.w3.org/2000/svg">
<rect width="100" height="100" rx="50" fill="#6FD300"/>
<path d="M49.5 87.5C48.375 87.5 47.2963 87.2962 46.2638 86.8887C45.2313 86.4812 44.31 85.8725 43.5 85.0625L18.375 59.8437C16.1875 57.6562 14.5775 55.1562 13.545 52.3437C12.5125 49.5312 11.9975 46.5937 12 43.5312C12 37.0937 14.0938 31.5625 18.2813 26.9375C22.4688 22.3125 27.6875 20 33.9375 20C36.9375 20 39.7663 20.5937 42.4238 21.7812C45.0813 22.9687 47.44 24.625 49.5 26.75C51.5 24.625 53.8288 22.9687 56.4863 21.7812C59.1438 20.5937 61.9713 20 64.9688 20C71.2187 20 76.4537 22.3125 80.6737 26.9375C84.8937 31.5625 87.0025 37.0625 87 43.4375C87 46.5 86.4687 49.4375 85.4062 52.25C84.3437 55.0625 82.75 57.5625 80.625 59.75L55.4063 85.0625C54.5938 85.875 53.6875 86.485 52.6875 86.8925C51.6875 87.3 50.625 87.5025 49.5 87.5ZM53.25 38.75C53.875 38.75 54.4688 38.9062 55.0313 39.2187C55.5938 39.5312 56.0313 39.9375 56.3438 40.4375L62.7187 50H78.2812C78.7187 48.9375 79.0462 47.8587 79.2637 46.7637C79.4812 45.6687 79.5912 44.56 79.5937 43.4375C79.4687 39.125 78.0312 35.4212 75.2812 32.3262C72.5312 29.2312 69.0937 27.685 64.9688 27.6875C63.0313 27.6875 61.1713 28.0625 59.3888 28.8125C57.6063 29.5625 56.06 30.6562 54.75 32.0937L52.2188 34.8125C51.9063 35.1875 51.5 35.485 51 35.705C50.5 35.925 50 36.0337 49.5 36.0312C49 36.0312 48.5 35.9225 48 35.705C47.5 35.4875 47.0625 35.19 46.6875 34.8125L44.1563 32.0937C42.8438 30.6562 41.3125 29.5312 39.5625 28.7187C37.8125 27.9062 35.9375 27.5 33.9375 27.5C29.8125 27.5 26.375 29.0787 23.625 32.2362C20.875 35.3937 19.5 39.1275 19.5 43.4375C19.5 44.5625 19.5938 45.6725 19.7813 46.7675C19.9688 47.8625 20.2813 48.94 20.7188 50H38.25C38.875 50 39.4688 50.1562 40.0313 50.4687C40.5938 50.7812 41.0313 51.1875 41.3438 51.6875L44.625 56.5625L49.6875 41.375C49.9375 40.625 50.39 40 51.045 39.5C51.7 39 52.435 38.75 53.25 38.75ZM54.375 50.9375L49.3125 66.125C49.0625 66.875 48.5938 67.5 47.9063 68C47.2188 68.5 46.4688 68.75 45.6563 68.75C45.0313 68.75 44.4375 68.5937 43.875 68.2812C43.3125 67.9687 42.875 67.5625 42.5625 67.0625L36.1875 57.5H26.625L48.8438 79.7187C48.9688 79.8437 49.0788 79.9225 49.1738 79.955C49.2688 79.9875 49.3775 80.0025 49.5 80C49.625 80 49.735 79.9837 49.83 79.9512C49.925 79.9187 50.0338 79.8412 50.1563 79.7187L72.2812 57.5H60.75C60.125 57.5 59.5313 57.3437 58.9688 57.0312C58.4063 56.7187 57.9375 56.3125 57.5625 55.8125L54.375 50.9375Z" fill="white"/>
</svg>
