<svg width="100" height="100" viewBox="0 0 100 100" fill="none" xmlns="http://www.w3.org/2000/svg">
<g clip-path="url(#clip0_14_65)">
<path d="M2.7955 2.7955C4.58599 1.00554 7.01411 0 9.54587 0C12.0776 0 14.5057 1.00554 16.2962 2.7955L50.0576 36.5569L83.819 2.7955C85.6198 1.05627 88.0316 0.0938937 90.5351 0.115648C93.0385 0.137402 95.4332 1.14155 97.2035 2.91181C98.9737 4.68206 99.9779 7.0768 99.9996 9.58023C100.021 12.0837 99.059 14.4955 97.3198 16.2962L63.5584 50.0576L97.3198 83.819C99.059 85.6198 100.021 88.0316 99.9996 90.5351C99.9779 93.0385 98.9737 95.4332 97.2035 97.2035C95.4332 98.9737 93.0385 99.9779 90.5351 99.9996C88.0316 100.021 85.6198 99.059 83.819 97.3198L50.0576 63.5584L16.2962 97.3198C14.4955 99.059 12.0837 100.021 9.58023 99.9996C7.0768 99.9779 4.68206 98.9737 2.91181 97.2035C1.14155 95.4332 0.137402 93.0385 0.115648 90.5351C0.0938937 88.0316 1.05627 85.6198 2.7955 83.819L36.5569 50.0576L2.7955 16.2962C1.00554 14.5057 0 12.0776 0 9.54587C0 7.01411 1.00554 4.58599 2.7955 2.7955Z" fill="#181927"/>
</g>
<defs>
<clipPath id="clip0_14_65">
<rect width="100" height="100" fill="white"/>
</clipPath>
</defs>
</svg>
