<svg width="100" height="100" viewBox="0 0 100 100" fill="none" xmlns="http://www.w3.org/2000/svg">
<rect width="100" height="100" rx="50" fill="#6FD300"/>
<path d="M75.2812 38.9531V45.9844C75.2812 47.2276 74.7874 48.4199 73.9083 49.2989C73.0292 50.178 71.837 50.6719 70.5938 50.6719H57.7031V77.625C57.7031 78.8682 57.2093 80.0605 56.3302 80.9396C55.4511 81.8186 54.2588 82.3125 53.0156 82.3125H45.9844C44.7412 82.3125 43.5489 81.8186 42.6698 80.9396C41.7907 80.0605 41.2969 78.8682 41.2969 77.625V50.6719H28.4062C27.163 50.6719 25.9708 50.178 25.0917 49.2989C24.2126 48.4199 23.7188 47.2276 23.7188 45.9844V38.9531C23.7188 37.7099 24.2126 36.5176 25.0917 35.6386C25.9708 34.7595 27.163 34.2656 28.4062 34.2656H41.2969V21.375C41.2969 20.1318 41.7907 18.9395 42.6698 18.0604C43.5489 17.1814 44.7412 16.6875 45.9844 16.6875H53.0156C54.2588 16.6875 55.4511 17.1814 56.3302 18.0604C57.2093 18.9395 57.7031 20.1318 57.7031 21.375V34.2656H70.5938C71.837 34.2656 73.0292 34.7595 73.9083 35.6386C74.7874 36.5176 75.2812 37.7099 75.2812 38.9531Z" fill="white"/>
</svg>
