<svg width="100" height="100" viewBox="0 0 100 100" fill="none" xmlns="http://www.w3.org/2000/svg">
<rect width="100" height="100" rx="50" fill="#6FD300"/>
<g clip-path="url(#clip0_12_25)">
<path fill-rule="evenodd" clip-rule="evenodd" d="M34.875 42.6875C34.8757 37.3981 36.6655 32.2645 39.9535 28.1212C43.2414 23.978 47.8342 21.0687 52.9852 19.8664C58.1361 18.6642 63.5422 19.2396 68.3247 21.4991C73.1072 23.7587 76.9847 27.5695 79.3269 32.312C81.6691 37.0545 82.3382 42.4499 81.2255 47.6209C80.1128 52.7919 77.2837 57.4345 73.1981 60.7939C69.1125 64.1533 64.0107 66.0319 58.7222 66.1244C53.4336 66.2168 48.2693 64.5177 44.0688 61.3031L38.4813 66.8875L42.9375 71.3438C43.236 71.632 43.474 71.9769 43.6378 72.3581C43.8016 72.7394 43.8878 73.1494 43.8914 73.5644C43.895 73.9793 43.8159 74.3908 43.6588 74.7749C43.5017 75.1589 43.2696 75.5078 42.9762 75.8012C42.6828 76.0947 42.3339 76.3267 41.9499 76.4838C41.5658 76.641 41.1543 76.72 40.7394 76.7164C40.3244 76.7128 39.9144 76.6266 39.5331 76.4628C39.1519 76.299 38.807 76.061 38.5188 75.7625L34.0625 71.3094L27.4375 77.9344C26.8511 78.5203 26.056 78.8494 25.227 78.8491C24.3981 78.8488 23.6032 78.5192 23.0172 77.9328C22.4312 77.3464 22.1022 76.5513 22.1025 75.7223C22.1028 74.8934 22.4324 74.0985 23.0188 73.5125L29.6438 66.8875L25.2594 62.5031C24.9609 62.2149 24.7228 61.87 24.5591 61.4888C24.3953 61.1075 24.3091 60.6974 24.3055 60.2825C24.3019 59.8676 24.3809 59.4561 24.5381 59.072C24.6952 58.688 24.9272 58.3391 25.2206 58.0457C25.5141 57.7522 25.863 57.5202 26.247 57.3631C26.6311 57.2059 27.0426 57.1269 27.4575 57.1305C27.8724 57.1341 28.2825 57.2203 28.6638 57.3841C29.045 57.5478 29.3899 57.7859 29.6781 58.0844L34.0625 62.4688L39.6563 56.875C36.5474 52.7994 34.8672 47.8135 34.875 42.6875ZM58.3125 25.5C53.7541 25.5 49.3824 27.3108 46.1591 30.5341C42.9358 33.7574 41.125 38.1291 41.125 42.6875C41.125 47.2459 42.9358 51.6176 46.1591 54.8409C49.3824 58.0642 53.7541 59.875 58.3125 59.875C62.8709 59.875 67.2426 58.0642 70.4659 54.8409C73.6892 51.6176 75.5 47.2459 75.5 42.6875C75.5 38.1291 73.6892 33.7574 70.4659 30.5341C67.2426 27.3108 62.8709 25.5 58.3125 25.5Z" fill="white"/>
</g>
<defs>
<clipPath id="clip0_12_25">
<rect width="75" height="75" fill="white" transform="translate(13 13)"/>
</clipPath>
</defs>
</svg>
