<svg width="100" height="100" viewBox="0 0 100 100" fill="none" xmlns="http://www.w3.org/2000/svg">
<rect width="100" height="100" rx="50" fill="#6FD300"/>
<path d="M78 50C78 42.2917 75.2604 35.6979 69.7812 30.2188C64.3021 24.7396 57.7083 22 50 22C42.2917 22 35.6979 24.7396 30.2188 30.2188C24.7396 35.6979 22 42.2917 22 50C22 57.7083 24.7396 64.3021 30.2188 69.7812C35.6979 75.2604 42.2917 78 50 78C57.7083 78 64.3021 75.2604 69.7812 69.7812C75.2604 64.3021 78 57.7083 78 50ZM86 50C86 54.875 85.0521 59.5312 83.1562 63.9688C81.2604 68.4062 78.6979 72.2396 75.4688 75.4688C72.2396 78.6979 68.4062 81.2604 63.9688 83.1562C59.5312 85.0521 54.875 86 50 86C45.125 86 40.4688 85.0521 36.0312 83.1562C31.5938 81.2604 27.7604 78.6979 24.5312 75.4688C21.3021 72.2396 18.7396 68.4062 16.8438 63.9688C14.9479 59.5312 14 54.875 14 50C14 45.125 14.9479 40.4688 16.8438 36.0312C18.7396 31.5938 21.3021 27.7604 24.5312 24.5312C27.7604 21.3021 31.5938 18.7396 36.0312 16.8438C40.4688 14.9479 45.125 14 50 14C54.875 14 59.5312 14.9479 63.9688 16.8438C68.4062 18.7396 72.2396 21.3021 75.4688 24.5312C78.6979 27.7604 81.2604 31.5938 83.1562 36.0312C85.0521 40.4688 86 45.125 86 50Z" fill="white"/>
</svg>
