<svg width="100" height="100" viewBox="0 0 100 100" fill="none" xmlns="http://www.w3.org/2000/svg">
<rect width="100" height="100" rx="50" fill="#6FD300"/>
<path d="M76.2812 21.2031H62.2187C61.2863 21.2031 60.3921 21.5735 59.7328 22.2328C59.0735 22.8921 58.7031 23.7863 58.7031 24.7188C58.7031 25.6512 59.0735 26.5454 59.7328 27.2047C60.3921 27.864 61.2863 28.2344 62.2187 28.2344H67.7852L58.1992 37.8262C53.2159 34.1019 47.007 32.4032 40.8218 33.072C34.6367 33.7407 28.9343 36.7272 24.8621 41.4305C20.79 46.1338 18.6503 52.2048 18.8736 58.422C19.0969 64.6392 21.6666 70.5412 26.0656 74.9402C30.4647 79.3393 36.3666 81.909 42.5838 82.1323C48.801 82.3556 54.8721 80.2159 59.5754 76.1437C64.2787 72.0716 67.2652 66.3692 67.9339 60.184C68.6026 53.9989 66.9039 47.7899 63.1797 42.8066L72.7656 33.2148V38.7812C72.7656 39.7137 73.136 40.6079 73.7953 41.2672C74.4546 41.9265 75.3488 42.2969 76.2812 42.2969C77.2137 42.2969 78.1079 41.9265 78.7672 41.2672C79.4265 40.6079 79.7969 39.7137 79.7969 38.7812V24.7188C79.7969 23.7863 79.4265 22.8921 78.7672 22.2328C78.1079 21.5735 77.2137 21.2031 76.2812 21.2031ZM55.8936 69.9707C53.4349 72.4283 50.3028 74.1018 46.8932 74.7795C43.4835 75.4571 39.9495 75.1086 36.738 73.778C33.5264 72.4473 30.7815 70.1943 28.8503 67.3037C26.9191 64.4132 25.8883 61.0149 25.8883 57.5386C25.8883 54.0623 26.9191 50.664 28.8503 47.7734C30.7815 44.8829 33.5264 42.6298 36.738 41.2992C39.9495 39.9685 43.4835 39.62 46.8932 40.2977C50.3028 40.9754 53.4349 42.6488 55.8936 45.1064C59.1845 48.407 61.0325 52.8777 61.0325 57.5386C61.0325 62.1994 59.1845 66.6702 55.8936 69.9707Z" fill="white"/>
</svg>
