<svg width="100" height="100" viewBox="0 0 100 100" fill="none" xmlns="http://www.w3.org/2000/svg">
<rect width="100" height="100" rx="50" fill="#6FD300"/>
<path d="M79.1484 21.7347C70.6816 14.6155 57.6006 15.6849 49.5 23.9319C41.3994 15.6849 28.3184 14.6009 19.8516 21.7347C8.83596 31.0071 10.4473 46.1243 18.2988 54.137L43.9922 80.3137C45.457 81.8079 47.4199 82.6428 49.5 82.6428C51.5947 82.6428 53.543 81.8225 55.0078 80.3284L80.7011 54.1516C88.538 46.1389 90.1787 31.0218 79.1484 21.7347ZM75.6914 49.2005L49.998 75.3772C49.6465 75.7288 49.3535 75.7288 49.0019 75.3772L23.3086 49.2005C17.9619 43.7512 16.8779 33.4387 24.3779 27.1253C30.0762 22.3352 38.8652 23.053 44.373 28.6634L49.5 33.8928L54.6269 28.6634C60.164 23.0237 68.9531 22.3352 74.622 27.1106C82.1074 33.4241 80.9941 43.7952 75.6914 49.2005Z" fill="white"/>
<g clip-path="url(#clip0_17_87)">
<path d="M48.8817 64.6775C50.02 64.6775 50.9428 63.7547 50.9428 62.6164C50.9428 61.4781 50.02 60.5553 48.8817 60.5553C47.7433 60.5553 46.8205 61.4781 46.8205 62.6164C46.8205 63.7547 47.7433 64.6775 48.8817 64.6775Z" fill="white"/>
<path d="M59.3639 43.1389C59.2253 42.0928 58.8711 41.0868 58.3237 40.1847C57.7764 39.2825 57.0477 38.5038 56.1839 37.8977C54.9688 37.0655 53.5949 36.4934 52.1483 36.2173C50.7017 35.9411 49.2137 35.9669 47.7775 36.293C45.1987 36.7469 42.7629 37.8009 40.6667 39.37C40.5159 39.4918 40.3905 39.6421 40.2978 39.8123C40.2051 39.9826 40.1468 40.1694 40.1263 40.3621C40.0849 40.7514 40.1999 41.1412 40.4458 41.4458C40.6918 41.7504 41.0487 41.9447 41.438 41.9861C41.8273 42.0276 42.2171 41.9126 42.5217 41.6666C44.2314 40.3821 46.2178 39.5149 48.3222 39.1344C49.3631 38.8854 50.4442 38.8537 51.4979 39.0411C52.5517 39.2286 53.5555 39.6312 54.4467 40.2239C54.9824 40.5952 55.4355 41.0733 55.7776 41.6281C56.1196 42.183 56.3431 42.8026 56.4342 43.448C56.92 47.4083 51.7378 48.9689 48.6019 49.543L47.3947 49.7639V56.1827C47.3947 56.5732 47.5498 56.9477 47.8259 57.2238C48.102 57.4999 48.4765 57.655 48.8669 57.655C49.2574 57.655 49.6319 57.4999 49.908 57.2238C50.1841 56.9477 50.3392 56.5732 50.3392 56.1827V52.2225C59.2314 50.1908 59.6289 45.2147 59.3639 43.1389Z" fill="white"/>
</g>
<defs>
<clipPath id="clip0_17_87">
<rect width="53" height="53" fill="white" transform="translate(23 24)"/>
</clipPath>
</defs>
</svg>
