<svg width="100" height="100" viewBox="0 0 100 100" fill="none" xmlns="http://www.w3.org/2000/svg">
<g clip-path="url(#clip0_13_36)">
<rect width="100" height="100" rx="50" fill="#6FD300"/>
<g clip-path="url(#clip1_13_36)">
<path d="M48.8333 76.7501C50.9811 76.7501 52.7222 75.009 52.7222 72.8612C52.7222 70.7134 50.9811 68.9723 48.8333 68.9723C46.6855 68.9723 44.9444 70.7134 44.9444 72.8612C44.9444 75.009 46.6855 76.7501 48.8333 76.7501Z" fill="white"/>
<path d="M68.6111 36.1111C68.3496 34.1374 67.6813 32.2394 66.6485 30.5372C65.6158 28.8351 64.241 27.3657 62.6111 26.2222C60.3186 24.652 57.7263 23.5726 54.9968 23.0515C52.2674 22.5305 49.4598 22.5792 46.75 23.1944C41.8844 24.0507 37.2884 26.0395 33.3333 29C33.0488 29.2298 32.8123 29.5134 32.6374 29.8346C32.4625 30.1558 32.3525 30.5083 32.3138 30.872C32.2357 31.6066 32.4526 32.342 32.9167 32.9167C33.3808 33.4913 34.0542 33.858 34.7887 33.9362C35.5232 34.0143 36.2587 33.7975 36.8333 33.3333C40.0593 30.9096 43.8072 29.2735 47.7778 28.5556C49.7418 28.0858 51.7815 28.0259 53.7697 28.3795C55.7579 28.7332 57.6518 29.4929 59.3334 30.6111C60.3441 31.3117 61.1991 32.2138 61.8444 33.2607C62.4898 34.3076 62.9116 35.4767 63.0833 36.6944C64 44.1667 54.2222 47.1111 48.3056 48.1944L46.0278 48.6111V60.7222C46.0278 61.4589 46.3205 62.1655 46.8414 62.6864C47.3623 63.2073 48.0689 63.5 48.8056 63.5C49.5423 63.5 50.2488 63.2073 50.7698 62.6864C51.2907 62.1655 51.5833 61.4589 51.5833 60.7222V53.25C68.3611 49.4167 69.1111 40.0278 68.6111 36.1111Z" fill="white"/>
</g>
</g>
<defs>
<clipPath id="clip0_13_36">
<rect width="100" height="100" rx="50" fill="white"/>
</clipPath>
<clipPath id="clip1_13_36">
<rect width="100" height="100" fill="white"/>
</clipPath>
</defs>
</svg>
